<svg width="128" height="128" xmlns="http://www.w3.org/2000/svg">

 <g>
  <title>background</title>
  <rect fill="none" id="canvas_background" height="402" width="582" y="-1" x="-1"/>
 </g>
 <g>
  <title>Layer 1</title>
  <path id="svg_2" fill="#EE3E36" d="m62.615,82.313c-14.459,0 -26.222,-11.763 -26.222,-26.222s11.763,-26.221 26.222,-26.221s26.222,11.763 26.222,26.221s-11.763,26.222 -26.222,26.222zm0,-49.442c-12.805,0 -23.222,10.417 -23.222,23.221c0,12.805 10.417,23.222 23.222,23.222s23.222,-10.417 23.222,-23.222c0,-12.804 -10.417,-23.221 -23.222,-23.221z"/>
  <path stroke="#ffffff" id="svg_4" fill="#ffffff" d="m62.615,82.313c-14.459,0 -26.222,-11.763 -26.222,-26.222s11.763,-26.221 26.222,-26.221s26.222,11.763 26.222,26.221s-11.763,26.222 -26.222,26.222zm0,-49.442c-12.805,0 -23.222,10.417 -23.222,23.221c0,12.805 10.417,23.222 23.222,23.222s23.222,-10.417 23.222,-23.222c0,-12.804 -10.417,-23.221 -23.222,-23.221z"/>
  <path id="svg_6" fill="#ffffff" d="m62.615,75.088c-10.475,0 -18.996,-8.521 -18.996,-18.996c0,-0.829 0.672,-1.5 1.5,-1.5s1.5,0.671 1.5,1.5c0,8.82 7.176,15.996 15.996,15.996c0.828,0 1.5,0.671 1.5,1.5s-0.672,1.5 -1.5,1.5z"/>
  <path stroke="#ffffff" id="svg_8" fill="#ffffff" d="m101.708,103.085c-1.866,0 -3.621,-0.727 -4.94,-2.046l-15.268,-15.268c-5.646,3.603 -12.148,5.5 -18.885,5.5c-19.398,0 -35.18,-15.782 -35.18,-35.18s15.781,-35.179 35.18,-35.179s35.18,15.781 35.18,35.179c0,6.709 -1.883,13.189 -5.457,18.819l15.279,15.279c2.724,2.724 2.724,7.156 0,9.88l-0.969,0.969c-1.32,1.321 -3.075,2.047 -4.94,2.047zm-20.015,-20.741c0.387,0 0.771,0.149 1.061,0.439l16.135,16.135c0.753,0.753 1.754,1.167 2.819,1.167c1.064,0 2.066,-0.415 2.819,-1.168l0.969,-0.969c1.554,-1.554 1.554,-4.083 0,-5.638l-16.144,-16.143c-0.511,-0.511 -0.585,-1.313 -0.177,-1.909c3.677,-5.364 5.62,-11.646 5.62,-18.167c0,-17.744 -14.436,-32.179 -32.18,-32.179s-32.18,14.436 -32.18,32.179c0,17.744 14.436,32.18 32.18,32.18c6.546,0 12.849,-1.958 18.228,-5.663c0.258,-0.177 0.554,-0.264 0.85,-0.264z"/>
  <rect y="0.193466" fill="none" x="1.38694" width="128" id="_x3C_Slice_x3E__9_" height="128"/>
 </g>
</svg>